<svg width="50" height="81" viewBox="0 0 50 81" fill="none" xmlns="http://www.w3.org/2000/svg">
<path d="M49.6921 38.7897C49.6921 25.0897 38.5462 13.9436 24.846 13.9436C11.1457 13.9436 0 25.0897 0 38.7897C0 47.1913 4.28952 55.0439 11.2834 59.6104V67.438C11.2834 74.9162 17.3674 81.0001 24.8457 81.0001C32.3239 81.0001 38.408 74.9161 38.408 67.438V63.0415C38.408 63.0404 38.4078 59.6107 38.4078 59.6107C45.4024 55.044 49.6921 47.1916 49.6921 38.7897ZM33.6185 67.4381C33.6185 72.2754 29.6832 76.2105 24.846 76.2105C20.0088 76.2105 16.0735 72.2752 16.0735 67.4381V65.4362H33.6185V67.4381ZM34.8204 56.1942C34.0768 56.6213 33.6185 57.4133 33.6185 58.2709V60.6466H27.2407V48.2626C30.3503 47.2509 32.6051 44.3262 32.6051 40.8834C32.6051 39.5608 31.5328 38.4885 30.2102 38.4885C28.8876 38.4885 27.8153 39.5608 27.8153 40.8834C27.8153 42.5206 26.4832 43.8529 24.846 43.8529C23.2087 43.8529 21.8765 42.5208 21.8765 40.8834C21.8765 39.5608 20.8042 38.4885 19.4816 38.4885C18.159 38.4885 17.0867 39.5608 17.0867 40.8834C17.0867 44.3261 19.3413 47.2509 22.4511 48.2626V60.6466H16.0738V58.2707C16.0738 57.4133 15.6155 56.6213 14.8719 56.1942C8.65309 52.6214 4.79008 45.9525 4.79008 38.7897C4.79008 27.7307 13.7873 18.7334 24.8465 18.7334C35.9057 18.7334 44.9028 27.7305 44.9028 38.7897C44.9025 45.9527 41.0392 52.6218 34.8204 56.1942Z" fill="black"/>
<path d="M24.846 0C23.5234 0 22.4511 1.0723 22.4511 2.39488V6.59913C22.4511 7.92171 23.5234 8.99401 24.846 8.99401C26.1685 8.99401 27.2408 7.92171 27.2408 6.59913V2.39488C27.2408 1.0723 26.1687 0 24.846 0Z" fill="black"/>
<path d="M18.1094 7.21358L16.6229 3.28065C16.1552 2.0435 14.7727 1.4197 13.536 1.88719C12.2989 2.35484 11.6749 3.73691 12.1426 4.97406L13.6289 8.90699C13.9912 9.86538 14.9021 10.4558 15.8695 10.4558C16.1508 10.4558 16.4372 10.4058 16.7159 10.3004C17.9531 9.83279 18.577 8.45073 18.1094 7.21358Z" fill="black"/>
<path d="M36.1559 1.88706C34.9186 1.41925 33.5367 2.04352 33.0691 3.28067L31.5826 7.2136C31.1151 8.45059 31.739 9.83266 32.9762 10.3003C33.2549 10.4057 33.5411 10.4557 33.8224 10.4557C34.79 10.4557 35.7009 9.86525 36.0631 8.90685L37.5495 4.97392C38.0172 3.73661 37.3932 2.35471 36.1559 1.88706Z" fill="black"/>
</svg>
