<svg width="67" height="67" viewBox="0 0 67 67" fill="none" xmlns="http://www.w3.org/2000/svg">
<path d="M33.0909 66.184C14.8439 66.184 0 51.3379 0 33.0909C0 14.8439 14.8439 0 33.0909 0C51.3379 0 66.1818 14.8439 66.1818 33.0909C66.184 51.3379 51.3379 66.184 33.0909 66.184ZM33.0909 3.78024C16.928 3.78024 3.78024 16.9301 3.78024 33.0909C3.78024 49.2517 16.928 62.3995 33.0909 62.3995C49.2517 62.3995 62.3995 49.2517 62.3995 33.0909C62.3995 16.9301 49.2517 3.78024 33.0909 3.78024Z" fill="#010002"/>
<path d="M46.1385 34.9811H20.0434C18.9992 34.9811 18.1511 34.1373 18.1511 33.091C18.1511 32.0468 18.9971 31.1987 20.0434 31.1987H46.1385C47.1826 31.1987 48.0286 32.0468 48.0286 33.091C48.0286 34.1373 47.1848 34.9811 46.1385 34.9811Z" fill="#010002"/>
<path d="M33.0909 48.0286C32.0467 48.0286 31.1986 47.1827 31.1986 46.1385V20.0434C31.1986 18.9992 32.0467 18.1511 33.0909 18.1511C34.135 18.1511 34.981 18.9992 34.981 20.0434V46.1385C34.981 47.1848 34.1372 48.0286 33.0909 48.0286Z" fill="#010002"/>
</svg>
