<svg width="59" height="84" viewBox="0 0 59 84" fill="none" xmlns="http://www.w3.org/2000/svg">
<path d="M25.6942 39.3554L42.3711 22.5438C43.3894 21.5173 43.3894 19.8528 42.3711 18.8261C41.3528 17.7998 39.7017 17.7998 38.6831 18.8261L24.0368 33.5909L19.6672 28.245C18.7514 27.1246 17.1083 26.9648 15.9964 27.888C14.885 28.8112 14.7265 30.4678 15.6423 31.5884L21.838 39.1683C22.3056 39.7403 22.9909 40.0867 23.7252 40.1222C23.7672 40.1243 23.8089 40.1254 23.8506 40.1254C24.5401 40.1254 25.204 39.8493 25.6942 39.3554Z" fill="black"/>
<circle cx="29.0909" cy="29.0909" r="27.0909" stroke="black" stroke-width="4"/>
<path d="M25.0784 55.1726L25.0784 81.2814H34.1066V55.1726" stroke="black" stroke-width="4"/>
</svg>
