<svg width="77" height="72" viewBox="0 0 77 72" fill="none" xmlns="http://www.w3.org/2000/svg">
<path d="M16.0396 70.9968C15.7638 70.9968 15.488 70.9127 15.2561 70.7457C14.8457 70.4511 14.6405 69.9527 14.7271 69.4596L18.8459 45.7666L1.4019 28.989C1.03946 28.6392 0.908872 28.1172 1.06478 27.6425C1.22201 27.1665 1.63909 26.8193 2.14145 26.747L26.2468 23.2899L37.0282 1.73375C37.252 1.28403 37.7158 1 38.2221 1C38.7298 1 39.1935 1.28403 39.4161 1.73375L50.1961 23.2899L74.3028 26.747C74.8051 26.8193 75.2209 27.1651 75.3795 27.6425C75.5354 28.1172 75.4061 28.6405 75.0423 28.989L57.5983 45.7692L61.7158 69.4609C61.8011 69.9541 61.5959 70.4524 61.1868 70.747C60.7764 71.0442 60.2314 71.0823 59.7823 70.8469L38.2221 59.6618L16.6593 70.8469C16.4647 70.9468 16.2515 70.9968 16.0396 70.9968ZM5.19559 28.9653L21.2072 44.3675C21.5203 44.6686 21.6642 45.1052 21.5896 45.5312L17.8092 67.2781L37.6025 57.0109C37.9903 56.8084 38.4526 56.8084 38.8431 57.0109L58.6337 67.2781L54.8546 45.5312C54.78 45.1052 54.9239 44.6699 55.2371 44.3675L71.2486 28.9653L49.1221 25.7923C48.6877 25.7305 48.3133 25.461 48.1187 25.073L38.2221 5.2881L28.3255 25.0744C28.1309 25.4623 27.7565 25.7318 27.3221 25.7936L5.19559 28.9653Z" fill="black" stroke="black" stroke-width="1.5"/>
</svg>
