<?xml version="1.0" encoding="utf-8"?>
<!-- Generator: Adobe Illustrator 25.3.1, SVG Export Plug-In . SVG Version: 6.00 Build 0)  -->
<svg version="1.1" id="Layer_1" xmlns="http://www.w3.org/2000/svg" xmlns:xlink="http://www.w3.org/1999/xlink" x="0px" y="0px"
	 viewBox="0 0 150 72" style="enable-background:new 0 0 150 72;" xml:space="preserve">
<style type="text/css">
	.st0{fill:#FFFFFF;}
</style>
<rect class="st0" width="150" height="72"/>
<g>
	<path d="M3.3,38.1V12.3h8.3c1.3,0,2.6,0.1,3.7,0.4c1.1,0.2,2.1,0.6,2.9,1.1c0.8,0.5,1.5,1.1,1.9,1.9c0.5,0.8,0.7,1.8,0.7,3
		c0,1.2-0.3,2.4-1,3.4c-0.6,1.1-1.5,1.8-2.7,2.2v0.2c1.4,0.3,2.6,1,3.5,2c1,1,1.4,2.4,1.4,4.1c0,1.3-0.3,2.4-0.8,3.4
		c-0.5,0.9-1.2,1.7-2.1,2.4c-0.9,0.6-1.9,1.1-3.1,1.4c-1.2,0.3-2.5,0.4-4,0.4H3.3z M7.9,22.9h3.3c1.8,0,3.1-0.3,3.9-1
		c0.8-0.7,1.2-1.5,1.2-2.6c0-1.3-0.4-2.2-1.3-2.7c-0.8-0.5-2.1-0.8-3.8-0.8H7.9V22.9z M7.9,34.6h3.9c1.9,0,3.4-0.3,4.4-1
		c1-0.7,1.5-1.8,1.5-3.2c0-1.4-0.5-2.4-1.5-3c-1-0.6-2.5-0.9-4.4-0.9H7.9V34.6z M32.3,38.6c-2.1,0-3.6-0.7-4.6-2
		c-1-1.3-1.4-3.3-1.4-5.7V18.7h4.6v11.6c0,1.6,0.2,2.7,0.7,3.4c0.5,0.7,1.2,1,2.3,1c0.8,0,1.6-0.2,2.2-0.6c0.7-0.4,1.4-1.1,2.1-2.1
		V18.7h4.6v19.4h-3.7l-0.4-2.8h-0.1c-0.8,1-1.8,1.8-2.8,2.4C34.8,38.3,33.7,38.6,32.3,38.6z M49.9,46.1c-0.5,0-1,0-1.4-0.1
		c-0.4-0.1-0.8-0.1-1.1-0.3l0.8-3.6c0.2,0.1,0.4,0.1,0.6,0.2c0.3,0.1,0.5,0.1,0.8,0.1c1,0,1.8-0.3,2.5-0.9c0.6-0.6,1.1-1.4,1.4-2.4
		l0.4-1.2l-7.6-19.2h4.6l3.4,9.5c0.3,0.8,0.6,1.7,0.8,2.7c0.3,0.9,0.6,1.8,0.9,2.8H56c0.2-0.9,0.5-1.8,0.7-2.7
		c0.3-0.9,0.5-1.9,0.8-2.7l2.9-9.5h4.4L57.7,39c-0.4,1.1-0.8,2.1-1.3,3c-0.5,0.9-1,1.6-1.7,2.2c-0.6,0.6-1.3,1.1-2.1,1.4
		C51.8,45.9,50.9,46.1,49.9,46.1z M73,38.1v-22h-7.5v-3.9h19.6v3.9h-7.5v22H73z M89,38.1V18.7h4.6v19.4H89z M91.3,15.3
		c-0.8,0-1.5-0.2-2-0.7c-0.5-0.5-0.8-1.1-0.8-1.9c0-0.8,0.3-1.4,0.8-1.9c0.5-0.5,1.2-0.8,2-0.8s1.5,0.3,2,0.8
		c0.5,0.5,0.8,1.1,0.8,1.9c0,0.8-0.3,1.4-0.8,1.9C92.8,15.1,92.1,15.3,91.3,15.3z M99.4,38.1V18.7h3.8l0.3,2.6h0.2
		c0.8-0.9,1.7-1.6,2.7-2.2c1-0.6,2.1-0.9,3.3-0.9c1.4,0,2.6,0.3,3.4,0.9c0.9,0.6,1.5,1.5,2,2.6c0.9-1,1.9-1.8,2.9-2.5
		c1-0.7,2.1-1,3.4-1c2.1,0,3.6,0.7,4.6,2c1,1.3,1.5,3.2,1.5,5.7v12.2h-4.6V26.5c0-1.6-0.3-2.7-0.8-3.4c-0.5-0.7-1.2-1-2.2-1
		c-1.2,0-2.6,0.8-4.1,2.4v13.6H111V26.5c0-1.6-0.3-2.7-0.8-3.4c-0.5-0.7-1.2-1-2.3-1c-1.2,0-2.6,0.8-4.1,2.4v13.6H99.4z M141.1,38.6
		c-1.3,0-2.6-0.2-3.8-0.7c-1.2-0.5-2.2-1.1-3.1-2c-0.9-0.9-1.6-1.9-2.1-3.2c-0.5-1.3-0.7-2.7-0.7-4.3c0-1.6,0.3-3,0.8-4.3
		s1.2-2.3,2-3.2c0.8-0.9,1.8-1.5,2.9-2c1.1-0.5,2.2-0.7,3.3-0.7c1.3,0,2.5,0.2,3.5,0.7c1,0.4,1.8,1.1,2.5,1.9
		c0.7,0.8,1.2,1.8,1.5,2.9c0.3,1.1,0.5,2.4,0.5,3.7c0,0.4,0,0.9-0.1,1.3c0,0.4-0.1,0.7-0.1,0.9H136c0.2,1.7,0.8,3.1,1.8,4
		c1,0.9,2.3,1.4,3.9,1.4c0.8,0,1.6-0.1,2.3-0.4c0.7-0.3,1.5-0.6,2.2-1.1l1.5,2.8c-0.9,0.6-2,1.1-3.1,1.5
		C143.5,38.4,142.4,38.6,141.1,38.6z M135.9,26.6h8.6c0-1.5-0.3-2.7-1-3.5c-0.6-0.9-1.6-1.3-3-1.3c-1.2,0-2.2,0.4-3.1,1.2
		C136.7,23.8,136.1,25,135.9,26.6z"/>
</g>
<g>
	<path d="M2.1,62.8h34 M110.4,62.8h34H110.4z"/>
	<path d="M144.3,63.3h-34v-1h34V63.3z M36.1,63.3h-34v-1h34V63.3z"/>
</g>
<g>
	<path d="M52.7,66.1c-1.9,0-3.5-0.6-4.7-1.9c-1.2-1.3-1.8-3-1.8-5c0-2.2,0.6-4,1.8-5.3c1.2-1.3,2.8-2,4.9-2c1.9,0,3.4,0.6,4.6,1.9
		c1.2,1.3,1.7,2.9,1.7,5c0,2.2-0.6,4-1.8,5.3C56.3,65.4,54.7,66.1,52.7,66.1z M52.9,53.3c-1.4,0-2.6,0.5-3.5,1.6
		c-0.9,1-1.3,2.4-1.3,4.1s0.4,3.1,1.3,4.1c0.9,1,2,1.5,3.4,1.5c1.5,0,2.7-0.5,3.6-1.5c0.9-1,1.3-2.4,1.3-4.1c0-1.8-0.4-3.2-1.3-4.2
		S54.3,53.3,52.9,53.3z"/>
	<path d="M69.9,65.8h-1.6v-5.6c0-2.1-0.8-3.1-2.3-3.1c-0.8,0-1.4,0.3-1.9,0.9c-0.5,0.6-0.8,1.3-0.8,2.2v5.6h-1.6V56h1.6v1.6h0
		c0.7-1.2,1.8-1.9,3.2-1.9c1.1,0,1.9,0.3,2.5,1c0.6,0.7,0.9,1.7,0.9,3V65.8z"/>
	<path d="M74.5,65.8h-1.6V51.3h1.6V65.8z"/>
	<path d="M78.4,53.5c-0.3,0-0.5-0.1-0.7-0.3c-0.2-0.2-0.3-0.4-0.3-0.7c0-0.3,0.1-0.5,0.3-0.7c0.2-0.2,0.4-0.3,0.7-0.3
		c0.3,0,0.5,0.1,0.7,0.3c0.2,0.2,0.3,0.4,0.3,0.7c0,0.3-0.1,0.5-0.3,0.7C79,53.4,78.7,53.5,78.4,53.5z M79.2,65.8h-1.6V56h1.6V65.8z
		"/>
	<path d="M90.5,65.8h-1.6v-5.6c0-2.1-0.8-3.1-2.3-3.1c-0.8,0-1.4,0.3-1.9,0.9c-0.5,0.6-0.8,1.3-0.8,2.2v5.6h-1.6V56h1.6v1.6h0
		c0.7-1.2,1.8-1.9,3.2-1.9c1.1,0,1.9,0.3,2.5,1c0.6,0.7,0.9,1.7,0.9,3V65.8z"/>
	<path d="M101.4,61.3h-6.9c0,1.1,0.3,1.9,0.9,2.5c0.6,0.6,1.3,0.9,2.3,0.9c1.1,0,2.1-0.4,3-1.1v1.5c-0.9,0.6-2,0.9-3.4,0.9
		c-1.4,0-2.5-0.4-3.3-1.3c-0.8-0.9-1.2-2.1-1.2-3.8c0-1.5,0.4-2.8,1.3-3.7c0.9-1,1.9-1.4,3.2-1.4c1.3,0,2.3,0.4,3,1.2
		c0.7,0.8,1.1,2,1.1,3.5V61.3z M99.7,60c0-0.9-0.2-1.6-0.7-2.1c-0.4-0.5-1-0.8-1.8-0.8c-0.7,0-1.4,0.3-1.9,0.8
		c-0.5,0.5-0.8,1.2-1,2.1H99.7z"/>
</g>
</svg>
